<svg width="43" height="44" viewBox="0 0 43 44" fill="none" xmlns="http://www.w3.org/2000/svg">
<path d="M21.5097 10.7695C15.4053 10.7695 10.4814 15.7793 10.4814 21.9902C10.4814 28.2012 15.4053 33.2109 21.5097 33.2109C27.6142 33.2109 32.5381 28.2012 32.5381 21.9902C32.5381 15.7793 27.6142 10.7695 21.5097 10.7695ZM21.5097 29.2852C17.5649 29.2852 14.3398 26.0137 14.3398 21.9902C14.3398 17.9668 17.5553 14.6953 21.5097 14.6953C25.4642 14.6953 28.6796 17.9668 28.6796 21.9902C28.6796 26.0137 25.4546 29.2852 21.5097 29.2852ZM35.5615 10.3105C35.5615 11.7656 34.4097 12.9277 32.9892 12.9277C31.559 12.9277 30.4169 11.7559 30.4169 10.3105C30.4169 8.86523 31.5686 7.69336 32.9892 7.69336C34.4097 7.69336 35.5615 8.86523 35.5615 10.3105ZM42.8657 12.9668C42.7026 9.46094 41.9155 6.35547 39.3912 3.79687C36.8765 1.23828 33.8242 0.4375 30.3785 0.261719C26.8271 0.0566406 16.1827 0.0566406 12.6314 0.261719C9.19521 0.427734 6.14298 1.22852 3.61865 3.78711C1.09432 6.3457 0.31686 9.45117 0.144092 12.957C-0.0574707 16.5703 -0.0574707 27.4004 0.144092 31.0137C0.307261 34.5195 1.09432 37.625 3.61865 40.1836C6.14298 42.7422 9.18561 43.543 12.6314 43.7188C16.1827 43.9238 26.8271 43.9238 30.3785 43.7188C33.8242 43.5527 36.8765 42.752 39.3912 40.1836C41.9059 37.625 42.693 34.5195 42.8657 31.0137C43.0673 27.4004 43.0673 16.5801 42.8657 12.9668ZM38.2778 34.8906C37.5291 36.8047 36.0798 38.2793 34.189 39.0508C31.3575 40.1934 24.6387 39.9297 21.5097 39.9297C18.3807 39.9297 11.6524 40.1836 8.83048 39.0508C6.94923 38.2891 5.4999 36.8145 4.74164 34.8906C3.61865 32.0098 3.8778 25.1738 3.8778 21.9902C3.8778 18.8066 3.62824 11.9609 4.74164 9.08984C5.4903 7.17578 6.93963 5.70117 8.83048 4.92969C11.6619 3.78711 18.3807 4.05078 21.5097 4.05078C24.6387 4.05078 31.3671 3.79687 34.189 4.92969C36.0702 5.69141 37.5195 7.16602 38.2778 9.08984C39.4008 11.9707 39.1416 18.8066 39.1416 21.9902C39.1416 25.1738 39.4008 32.0195 38.2778 34.8906Z" fill="#E2BC9F"/>
</svg>
