<svg width="549" height="415" viewBox="0 0 549 415" fill="none" xmlns="http://www.w3.org/2000/svg">
<path d="M118.95 331.571C93.7875 331.571 73.2 308.308 73.2 279.875V52.4108C73.2 23.9777 93.7875 0.714355 118.95 0.714355H430.05C455.212 0.714355 475.8 23.9777 475.8 52.4108V279.875C475.8 308.308 455.212 331.571 430.05 331.571H118.95ZM109.8 52.4108V279.875C109.8 285.376 114.082 290.214 118.95 290.214H430.05C434.918 290.214 439.2 285.376 439.2 279.875V52.4108C439.2 46.9103 434.918 42.0715 430.05 42.0715H118.95C114.082 42.0715 109.8 46.9103 109.8 52.4108ZM503.25 352.25H549V383.268C549 400.39 528.412 414.286 503.25 414.286H45.75C20.5875 414.286 0 400.39 0 383.268V352.25H503.25ZM297.375 383.268C299.955 383.268 301.95 381.014 301.95 378.098C301.95 375.183 299.955 372.929 297.375 372.929H251.625C249.045 372.929 247.05 375.183 247.05 378.098C247.05 381.014 249.045 383.268 251.625 383.268H297.375Z" fill="url(#paint0_linear_26_9)"/>
<defs>
<linearGradient id="paint0_linear_26_9" x1="274.5" y1="0.714355" x2="274.5" y2="414.286" gradientUnits="userSpaceOnUse">
<stop stop-color="#E2BC9F"/>
<stop offset="0.69" stop-color="#7F6A59"/>
<stop offset="1" stop-color="#7C6757"/>
</linearGradient>
</defs>
</svg>
