<svg width="50" height="50" viewBox="0 0 50 50" fill="none" xmlns="http://www.w3.org/2000/svg">
<path d="M16.1035 2.4021C15.3516 0.585698 13.3691 -0.381099 11.4746 0.136479L2.88086 2.48023C1.18164 2.94898 0 4.49195 0 6.24976C0 30.4099 19.5898 49.9998 43.75 49.9998C45.5078 49.9998 47.0508 48.8181 47.5195 47.1189L49.8633 38.5252C50.3809 36.6306 49.4141 34.6482 47.5977 33.8962L38.2227 29.99C36.6309 29.3259 34.7852 29.7849 33.7012 31.1228L29.7559 35.9373C22.8809 32.6853 17.3145 27.1189 14.0625 20.2439L18.877 16.3084C20.2148 15.2146 20.6738 13.3787 20.0098 11.7869L16.1035 2.41187V2.4021Z" fill="#E2BC9F"/>
</svg>
